<svg width="36" height="20" viewBox="0 0 36 20" fill="none" xmlns="http://www.w3.org/2000/svg">
<rect width="34.925" height="15.0981" rx="3.95824" transform="matrix(0.999956 -0.00935878 0.00761647 0.999971 0.348343 2.51086)" fill="white"/>
<path d="M20.9801 18.8978C20.983 18.8978 20.9922 18.8965 20.9995 18.8964C21.0704 18.8957 21.3225 18.8926 21.4603 18.8624C21.6144 18.8288 21.7687 18.7822 21.9049 18.7012C22.1087 18.5799 22.2814 18.4053 22.4405 18.2274C22.5734 18.079 22.6757 17.9048 22.7858 17.7381C22.8301 17.6711 22.8869 17.6086 22.9111 17.5317C22.9144 17.5211 22.9188 17.5115 22.9212 17.5004C25.4454 17.5241 27.9698 17.5368 30.4939 17.5092C32.0097 17.476 33.5055 16.7165 34.3513 15.4123C34.712 14.993 34.9452 14.4954 35.0541 13.9552C35.6651 12.3324 35.4343 10.5526 35.5092 8.85201C35.576 7.496 35.314 6.12811 34.7273 4.91387C34.0418 3.77889 33.0086 2.76121 31.6743 2.54073C29.8064 2.11992 27.8747 2.3221 25.9774 2.23312C25.0201 2.22351 24.063 2.21111 23.1057 2.19952C23.1042 2.19249 23.1014 2.18643 23.0995 2.17964C23.0772 2.10211 23.0219 2.0383 22.9793 1.97018C22.8733 1.80084 22.7753 1.62418 22.6462 1.47255C22.4915 1.29081 22.3231 1.11204 22.1223 0.98578C21.9881 0.901352 21.8351 0.85111 21.6818 0.813659C21.5448 0.780201 21.2929 0.770836 21.222 0.768398C21.1902 0.761322 21.1558 0.766678 21.133 0.783813C21.1101 0.800946 21.1028 0.818024 21.0965 0.857643C21.0902 0.897265 21.0959 0.9145 21.1204 1.01475C21.145 1.115 21.2045 1.28979 21.2686 1.44904C21.3327 1.60829 21.4397 1.82724 21.511 1.96536C21.5566 2.05374 21.5937 2.12055 21.6295 2.1814C20.3842 2.16554 19.1391 2.15026 17.8937 2.1339C17.8894 2.12799 17.8849 2.12158 17.8794 2.11557C17.851 2.08427 17.8098 2.04275 17.7304 2.01305C17.6511 1.98335 17.647 1.99139 17.4046 1.97604C17.1622 1.96068 16.5477 1.95752 16.3676 1.96661C16.1876 1.97571 16.1555 1.9782 16.0666 2.01244C15.9949 2.04011 15.9414 2.05316 15.9298 2.10815C14.0323 2.08436 12.1338 2.06329 10.2363 2.04817C10.1668 2.02314 10.151 2.02921 9.92012 2.01458C9.67776 1.99922 9.06162 1.99604 8.88156 2.00513C8.73309 2.01264 8.68466 2.0165 8.62271 2.03662C7.05495 2.02736 5.48672 2.0233 3.91888 2.02675C2.82273 2.01066 1.72476 2.69549 1.34361 3.76795C0.374693 6.12556 0.359413 8.75246 0.424463 11.2704C0.527041 12.9152 0.713283 14.6467 1.56731 16.0763C2.33419 17.216 3.83851 17.2679 5.06437 17.278C6.21855 17.3045 7.3725 17.3235 8.52696 17.3403C8.56614 17.346 8.61389 17.3512 8.69313 17.3572C8.87292 17.3707 9.48895 17.3826 9.73162 17.3732C9.89089 17.3671 9.94435 17.3677 9.98699 17.3615C11.4653 17.38 12.9438 17.3946 14.4222 17.4126C14.8614 17.4156 15.3009 17.4199 15.7402 17.4238C15.7487 17.4822 15.8036 17.4962 15.8762 17.5262C15.9642 17.5626 15.9962 17.5659 16.176 17.5794C16.3558 17.5929 16.9702 17.6048 17.2129 17.5954C17.4556 17.586 17.4595 17.5942 17.5396 17.5664C17.6196 17.5387 17.6619 17.4982 17.691 17.4676C17.6983 17.4599 17.7055 17.4523 17.7107 17.4447C18.956 17.4584 20.2011 17.4721 21.4465 17.4856C21.4077 17.5477 21.3678 17.6156 21.3178 17.7069C21.2431 17.8433 21.1308 18.0594 21.0628 18.2171C20.9948 18.3747 20.931 18.548 20.904 18.6476C20.877 18.7472 20.8709 18.7643 20.8763 18.8041C20.8816 18.8439 20.8885 18.8611 20.9109 18.8788C20.9261 18.8909 20.9472 18.8966 20.9688 18.8977C20.9725 18.8979 20.9764 18.8979 20.9801 18.8978ZM16.7512 17.4363C16.7053 17.4362 16.653 17.4355 16.6027 17.4328C16.6743 17.4335 16.7458 17.4347 16.8175 17.4354C16.7947 17.436 16.7713 17.4363 16.7512 17.4363ZM3.70682 16.672C3.38499 16.6763 3.02292 16.6226 2.82834 16.5176C2.35197 16.2606 2.06923 15.8702 1.96424 15.3235C1.93 15.1451 1.84629 14.8853 1.77911 14.7452C1.57924 14.3282 1.39794 13.7268 1.41743 13.5473L1.43563 13.3808L1.59364 13.5363C1.68047 13.6215 1.82787 13.8654 1.91975 14.0784C2.45158 15.3114 3.17317 16.0347 4.28141 16.448C4.37781 16.4839 4.37704 16.4878 4.28494 16.5553C4.18241 16.6305 3.95717 16.6686 3.70682 16.672ZM21.0174 16.7805C20.9133 16.7799 20.7943 16.778 20.6621 16.7761C19.7804 16.7636 18.3122 16.7257 16.7735 16.6739L15.6755 16.6373L15.2559 15.9455C15.0255 15.5658 14.8306 15.219 14.8228 15.1743C14.8088 15.0942 14.8128 15.0944 15.1548 15.1041C15.3454 15.1095 15.8422 15.1301 16.2575 15.1506C17.4306 15.2086 19.238 15.423 20.3788 15.6387L20.8349 15.7235L20.979 15.9596C21.0583 16.089 21.2061 16.3153 21.3072 16.4638C21.4083 16.6124 21.4965 16.7495 21.5038 16.7683C21.5074 16.7778 21.3296 16.7823 21.0174 16.7805ZM31.3207 16.869C31.2368 16.8679 31.1415 16.8673 31.0332 16.8655C29.8667 16.8462 29.6596 16.7521 30.1095 16.4497C30.3695 16.275 32.0417 15.2653 32.7183 14.874C33.2936 14.5413 33.5209 14.3484 33.781 13.9726C33.8856 13.8213 34.0438 13.6645 34.1342 13.622C34.3021 13.5431 34.5628 13.5226 34.6209 13.5834C34.6389 13.6023 34.6527 13.7518 34.6507 13.9156C34.6468 14.2338 34.5493 14.4704 34.2011 15.016C33.9145 15.465 33.3601 16.0922 33.0331 16.337C32.8658 16.4622 32.544 16.6364 32.3176 16.7228C31.96 16.8592 31.9083 16.8762 31.3207 16.869ZM13.7571 16.5857C13.6239 16.5844 13.4144 16.5767 13.0902 16.5643C10.369 16.461 8.59927 16.3777 8.57783 16.3538C8.5419 16.3137 8.44887 15.6744 8.45122 15.4824C8.4549 15.1831 8.43194 15.1914 9.4423 15.1495C10.1184 15.1215 12.6799 15.0714 13.2894 15.0746C13.3487 15.0749 13.4124 15.1959 13.6572 15.7724C13.82 16.1556 13.9646 16.4985 13.9774 16.534C13.9912 16.5723 13.979 16.588 13.7571 16.5857ZM6.95101 16.1027C6.89219 16.104 6.81949 16.0987 6.72663 16.0901C6.36278 16.056 5.50006 15.9202 5.45295 15.8896C5.35174 15.8239 5.87916 15.6399 6.52369 15.5148C7.00338 15.4217 7.0591 15.4166 7.17689 15.4667C7.28632 15.5133 7.30646 15.6495 7.23506 15.8603C7.17438 16.0395 7.12737 16.099 6.95101 16.1027ZM26.2329 16.0307C26.0775 16.0288 21.8021 15.0129 21.0611 14.8019C20.5614 14.6596 19.6442 14.3302 19.0234 14.0704C17.6109 13.4793 16.8871 13.275 16.1708 13.2662C15.6255 13.2595 15.5942 13.2443 15.153 12.7503L14.6989 12.2412L14.7295 9.74582L14.7601 7.24877L15.2152 6.76411L15.6685 6.28108L16.5381 6.23893C17.224 6.20642 17.6072 6.12091 18.3555 5.83372C20.2204 5.11803 21.4332 4.77274 23.692 4.30965C24.9525 4.05127 26.0836 3.81764 26.2055 3.79083C26.384 3.75159 26.4626 3.81635 26.6117 4.12594C26.8408 4.60208 27.3371 6.2556 27.4761 7.00703C27.7824 8.66416 27.7207 11.6035 27.3502 13.0485C27.0048 14.3962 26.3915 16.0327 26.2329 16.0307ZM3.20762 15.2282C2.93329 15.2385 2.85324 14.9955 2.56171 14.4197C1.76881 12.8535 1.53943 11.5102 1.64555 9.04382C1.72882 7.1088 1.89906 6.36686 2.57219 5.0111C3.15877 3.82967 3.17381 3.82177 4.01283 4.24308C4.39317 4.43402 4.96103 4.69222 5.27386 4.81648C5.58668 4.94073 5.8427 5.06074 5.84243 5.08261C5.84216 5.10447 5.68222 5.43495 5.48772 5.81774C4.87723 7.01919 4.67016 7.97765 4.65535 9.6717C4.64059 11.3675 4.8055 12.2119 5.39096 13.4376C5.58468 13.8431 5.72851 14.1866 5.71113 14.2008C5.69376 14.2151 5.0994 14.4764 4.3907 14.7822C3.75086 15.0582 3.42095 15.2201 3.20762 15.2282ZM34.5904 6.4605C34.5509 6.46357 34.5022 6.45603 34.442 6.44052C34.1474 6.36477 34.1047 6.32942 33.8597 5.97615C33.5691 5.55703 33.4022 5.41748 32.6734 4.9745C31.5934 4.31807 30.1418 3.36334 30.0903 3.27564C29.9799 3.08759 30.1144 3.05805 31.1203 3.05884C31.9509 3.05954 32.1083 3.07278 32.3338 3.15957C33.0879 3.44968 33.6843 3.98108 34.2417 4.86004C34.652 5.50693 34.748 5.74275 34.7451 6.09265C34.7429 6.34906 34.7088 6.45139 34.5904 6.4605ZM1.52881 5.78896L1.51613 5.63695C1.50077 5.4608 1.71788 4.79586 1.89878 4.46803C1.96636 4.34564 2.05712 4.08438 2.09975 3.88782C2.28125 3.05094 2.92182 2.53827 3.75238 2.56282C3.91814 2.56774 4.12142 2.58831 4.20411 2.60963C4.28679 2.63095 4.39732 2.67407 4.45009 2.70509C4.53982 2.75785 4.53618 2.76458 4.39699 2.81998C3.74872 3.07819 3.39117 3.2945 3.04624 3.63368C2.63453 4.03848 2.3741 4.41568 2.03477 5.1019C1.9059 5.36261 1.74042 5.62459 1.66579 5.68335L1.52881 5.78896ZM13.4932 4.39575L12.7891 4.37886C11.9344 4.35846 10.2543 4.27768 9.34551 4.21444C8.80402 4.17677 8.67107 4.15739 8.63603 4.11C8.57644 4.02946 8.5867 3.71423 8.66336 3.33123L8.72868 3.01015L8.88727 2.98734C9.04092 2.96554 10.8727 2.93239 13.0817 2.91172C13.847 2.90452 14.1639 2.91279 14.154 2.93974C14.1462 2.96077 13.9945 3.29696 13.8169 3.68664L13.4932 4.39575ZM15.5736 4.40643C15.1945 4.40244 14.9488 4.38399 14.9492 4.3476C14.9498 4.30056 15.7394 3.03207 15.8242 2.94208C15.866 2.89778 16.766 2.88464 20.6857 2.873L21.7115 2.86908L21.5653 3.07031C21.4844 3.18082 21.3206 3.42063 21.2018 3.60231C21.0699 3.80381 20.9562 3.93909 20.9116 3.94869C20.5125 4.03474 18.9896 4.22313 18.0415 4.30467C17.2058 4.37653 16.2056 4.41311 15.5736 4.40643ZM7.13349 3.86707C6.98743 3.86321 6.78049 3.82428 6.49841 3.75528C5.79187 3.58254 5.43594 3.4164 5.67285 3.3688C5.90118 3.32291 6.57176 3.24729 6.90385 3.2304L7.26105 3.21333L7.33066 3.33303C7.36878 3.39894 7.40934 3.51622 7.42116 3.59329C7.45061 3.78628 7.37693 3.87352 7.13349 3.86707Z" fill="#222222"/>
</svg>
